<svg version="1.1" xmlns="http://www.w3.org/2000/svg" style="display: block;" viewBox="0 0 2286 2286" width="4096" height="2286" preserveAspectRatio="none">
<path transform="translate(0,0)" fill="rgb(10,12,11)" d="M 0 0 L 145.689 0 L 536.219 0 L 873.221 0 L 2003.37 0 L 2154.44 0 L 2286 0 L 2286 438.002 L 2286 702.355 L 2286 1288.56 L 2286 1482.09 L 2286 1635.27 L 2286 2286 L 2193.82 2286 L 2009.03 2286 L 1911.77 2286 L 1779.38 2286 L 1652.49 2286 L 1615.51 2286 L 1498.91 2286 L 1434.33 2286 L 1265.61 2286 L 1038.35 2286 L 867.707 2286 L 619.116 2286 L 474.515 2286 L 345.441 2286 L 219.607 2286 L 0 2286 L 0 909.323 L 0 441.623 L 0 362.565 L 0 0 z"/>
<path transform="translate(0,0)" fill="rgb(10,12,11)" d="M 0 0 L 145.689 0 L 536.219 0 L 873.221 0 C 987.838 169.738 1016.79 503.684 1016.88 705.516 C 1016.94 838.6 979.788 1034.05 909.999 1147.11 C 825.278 1284.35 712.422 1392.99 651.535 1548.6 C 584.153 1720.8 562.329 1919.7 582.963 2103.37 C 589.867 2165.15 601.96 2226.24 619.116 2286 L 474.515 2286 L 345.441 2286 L 219.607 2286 L 0 2286 L 0 909.323 L 0 441.623 L 0 362.565 L 0 0 z"/>
<path transform="translate(0,0)" fill="rgb(46,125,50)" d="M 536.219 0 L 873.221 0 C 987.838 169.738 1016.79 503.684 1016.88 705.516 C 1016.94 838.6 979.788 1034.05 909.999 1147.11 C 825.278 1284.35 712.422 1392.99 651.535 1548.6 C 584.153 1720.8 562.329 1919.7 582.963 2103.37 C 589.867 2165.15 601.96 2226.24 619.116 2286 L 474.515 2286 C 472.894 2248.27 470.611 2216.11 471.046 2177.73 C 472.818 2088.27 480.681 1999.04 494.579 1910.66 C 503.429 1848.96 514.998 1787.68 529.251 1727.01 C 550.768 1638.32 583.261 1546.89 619.721 1462.57 C 689.294 1302.22 797.15 1159.25 854.516 994.098 C 858.734 981.956 884.255 885.269 844.539 887.076 C 836.813 887.427 822.685 919.813 817.995 929.899 C 812.45 943.479 806.558 957.159 799.689 970.13 C 774.718 1016.13 746.35 1056.8 692.155 1068.85 C 658.268 1076.39 614.18 1066.92 586.074 1046.4 C 504.338 986.723 472.516 873.467 452.311 779.098 C 439.823 718.586 433.61 658.943 429.506 598.573 C 416.814 411.894 430.934 159.873 536.219 0 z"/>
<path transform="translate(0,0)" fill="rgb(46,125,50)" d="M 799.689 970.13 C 796.725 968.868 796.809 969.084 794.981 966.477 C 792.99 958.942 807.865 932.158 815.337 928.433 L 817.995 929.899 C 812.45 943.479 806.558 957.159 799.689 970.13 z"/>
<path transform="translate(0,0)" fill="rgb(10,12,11)" d="M 637.947 120.902 C 658.492 119.7 669.21 125.506 683.504 139.761 C 699.853 156.066 706.231 172.324 714.305 193.217 C 744.755 272.007 697.699 338.486 684.015 413.632 C 677.915 447.915 686.389 486.736 685.2 521.941 C 684.041 556.268 678.287 604.251 651.796 629.817 C 640.271 640.938 628.863 642.173 614.131 641.426 C 572.66 634.724 544.815 564.728 537.722 528.592 C 515.226 413.984 520.791 274.691 578.245 170.656 C 589.473 150.325 614.895 125.969 637.947 120.902 z"/>
<path transform="translate(0,0)" fill="rgb(10,12,11)" d="M 0 909.323 C 65.5477 1018.03 128.353 1103.76 185.594 1220.54 C 227.006 1306.57 259.744 1396.52 283.324 1489.05 C 293.522 1531.18 301.961 1573.72 308.62 1616.55 C 333.816 1772.34 342.336 1944.26 304.424 2098.64 C 285.979 2173.74 262.82 2223.53 219.607 2286 L 0 2286 L 0 909.323 z"/>
<path transform="translate(0,0)" fill="rgb(46,125,50)" d="M 8.2135 424.911 C 10.2397 449.62 12.2277 473.859 16.4914 498.252 C 39.0295 627.197 99.2601 742.878 146.41 863.599 C 189.456 973.814 226.879 1087.37 262.29 1200.31 C 285.755 1276.37 312.633 1356.11 331.425 1433.23 C 349.137 1505.52 362.243 1578.86 370.665 1652.81 C 392.695 1825.09 390.782 1999.59 364.98 2171.34 C 359.215 2211.8 352.577 2246.39 345.441 2286 L 219.607 2286 C 262.82 2223.53 285.979 2173.74 304.424 2098.64 C 342.336 1944.26 333.816 1772.34 308.62 1616.55 C 301.961 1573.72 293.522 1531.18 283.324 1489.05 C 259.744 1396.52 227.006 1306.57 185.594 1220.54 C 128.353 1103.76 65.5477 1018.03 0 909.323 L 0 441.623 C 5.64772 437.836 7.1542 431.228 8.2135 424.911 z"/>
<path transform="translate(0,0)" fill="rgb(46,125,50)" d="M 0 0 L 145.689 0 C 184.139 86.4553 188.458 194.261 194.17 287.113 C 199.806 386.042 207.748 484.94 235.016 580.68 C 250.37 634.589 270.207 688.986 278.55 744.512 C 284.726 785.617 286.739 860.641 240.453 881.308 C 231.524 885.387 221.322 885.672 212.179 882.098 C 117.115 844.294 131.281 419.073 109.415 323.619 C 91.2288 244.232 48.4873 243.73 18.7689 317.335 C 11.0856 336.982 8.84953 359.788 6.95613 380.938 C 6.415 377.376 6.13945 374.004 4.75816 370.698 L 3.58203 378.959 C 3.49762 371.281 4.23112 368.733 0 362.565 L 0 0 z"/>
<path transform="translate(0,0)" fill="rgb(46,125,50)" d="M 0 362.565 C 4.23112 368.733 3.49762 371.281 3.58203 378.959 L 4.75816 370.698 C 6.13945 374.004 6.415 377.376 6.95613 380.938 C 6.9725 396.436 7.20203 409.472 8.2135 424.911 C 7.1542 431.228 5.64772 437.836 0 441.623 L 0 362.565 z"/>
<path transform="translate(0,0)" fill="rgb(46,125,50)" d="M 384.993 952.558 C 396.745 951.501 407.051 951.109 418.632 953.891 C 461.98 964.306 496.662 1008.81 518.569 1045.43 C 587.553 1160.78 616.647 1323.49 585.866 1454.78 C 569.787 1523.37 539.48 1596.67 477.198 1634.44 C 406.292 1678.24 385.288 1582.82 381.464 1532.7 C 375.861 1459.25 368.225 1386.81 347.863 1315.67 C 338.989 1285.58 328.291 1256.05 315.829 1227.26 C 303.111 1198.47 286.326 1168.1 279.791 1137.42 C 270.746 1094.97 277.777 1051.74 302.292 1015.66 C 322.833 985.433 348.257 960.096 384.993 952.558 z"/>
<path transform="translate(0,0)" fill="rgb(10,12,11)" d="M 473.119 1310.84 C 473.255 1335.04 471.78 1357.29 462.523 1380.28 C 452.617 1404.87 429.798 1406.06 421.696 1380.02 C 415.949 1356.34 417.531 1336.68 412.005 1312.11 C 401.856 1266.99 354.014 1204.86 380.284 1158.67 C 401.953 1120.56 435.359 1167.26 444.974 1190.56 C 455.5 1216.06 460.702 1234.18 467.123 1262.34 C 484.556 1260.1 474.494 1305.01 477.181 1315.38 C 477.2 1315.45 476.624 1318.72 476.612 1318.79 C 474.071 1316.45 474.295 1314.73 473.119 1310.84 z"/>
<path transform="translate(0,0)" fill="rgb(46,125,50)" d="M 467.123 1262.34 C 484.556 1260.1 474.494 1305.01 477.181 1315.38 C 477.2 1315.45 476.624 1318.72 476.612 1318.79 C 474.071 1316.45 474.295 1314.73 473.119 1310.84 C 470.847 1295.33 469.274 1278.24 467.123 1262.34 z"/>
<path transform="translate(0,0)" fill="rgb(46,125,50)" d="M 440.224 1401.04 C 444.375 1403.52 445.543 1400.94 450.119 1402.95 L 449.903 1405.09 C 447.021 1408.28 448.16 1407.28 443.111 1408.29 C 437.941 1409.15 437.024 1409.96 432.846 1406.44 L 432.769 1404.09 C 435.115 1401.5 436.737 1401.64 440.224 1401.04 z"/>
<path transform="translate(0,0)" fill="rgb(46,125,50)" d="M 2003.37 0 L 2154.44 0 L 2286 0 L 2286 438.002 L 2286 702.355 L 2286 1288.56 L 2286 1482.09 C 2279.56 1471.18 2270.74 1451.89 2264.75 1439.84 C 2253.45 1416.94 2241.6 1394.32 2229.21 1371.98 C 2201.26 1321.51 2170.69 1272.89 2145.53 1220.85 C 2136.94 1203.09 2126.86 1186.05 2118.97 1167.83 C 2115.73 1162.01 2112.91 1155.9 2110.02 1149.88 C 2104.04 1137.08 2081.59 1082.65 2073.09 1077.94 C 2050.03 1077.16 2055.04 1148.43 2056.85 1162.14 C 2060.61 1190.66 2065.47 1218.78 2069.89 1247.18 C 2072.61 1263.92 2074.52 1280.79 2075.61 1297.72 C 2079.21 1359.17 2070.74 1449.83 2012.87 1485.79 C 1987.69 1501.44 1960.15 1482.21 1950.1 1457.67 C 1924.62 1395.47 1943.03 1325.95 1957.23 1263.31 C 1964.24 1233.49 1970.75 1203.55 1976.77 1173.51 C 1987.35 1121.55 1994.47 1068.94 1998.07 1016.04 C 2002.17 948.43 1999.96 880.587 1991.46 813.389 C 1984.32 759.922 1972.65 704.957 1964.64 650.818 C 1938.99 477.501 1935.02 310.673 1968.3 137.787 C 1977.09 92.1165 1987.73 43.8894 2003.37 0 z"/>
<path transform="translate(0,0)" fill="rgb(10,12,11)" d="M 2154.44 0 L 2286 0 L 2286 438.002 C 2282.28 433.263 2272.33 423.033 2267.46 420.35 C 2192.15 378.902 2170.68 564.893 2165.05 601.129 L 2152.35 683.055 C 2143.36 737.445 2132.44 799.777 2106.87 849.261 C 2104.21 854.418 2088.04 870.657 2083.52 862.584 C 2069.77 838.022 2067.73 797.586 2064.51 769.942 C 2046.19 612.991 2054.37 457.415 2092.46 303.87 C 2102.54 264.637 2113.29 225.581 2124.71 186.72 C 2144.98 116.205 2154.7 74.5565 2154.44 0 z"/>
<path transform="translate(0,0)" fill="rgb(10,12,11)" d="M 2286 702.355 L 2286 1288.56 C 2259.74 1251.74 2233.15 1217.78 2207.66 1179.74 C 2175.91 1132.15 2149.19 1081.39 2127.94 1028.28 C 2123.58 1017.19 2113.04 990.111 2113.13 978.976 C 2113.68 915.134 2180.29 862.905 2217.44 817.8 C 2251.67 776.233 2265.53 749.245 2286 702.355 z"/>
<path transform="translate(0,0)" fill="rgb(46,125,50)" d="M 2110.02 1149.88 C 2109.54 1145.24 2108.78 1145.32 2110.54 1141.9 L 2112.13 1140.93 C 2119.98 1145.42 2118.23 1155.61 2120.37 1163.34 L 2118.97 1167.83 C 2115.73 1162.01 2112.91 1155.9 2110.02 1149.88 z"/>
<path transform="translate(0,0)" fill="rgb(46,125,50)" d="M 1587.16 1066.23 C 1586.1 1061.38 1585.45 1044.13 1585.23 1038.63 C 1584.33 1017.88 1583.88 997.11 1583.89 976.342 C 1583.78 804.885 1610.72 632.799 1678.73 473.996 C 1691.27 444.735 1720.96 403.792 1752.27 392.988 C 1829.5 366.331 1876.06 468.579 1896.59 526.27 C 1926.38 611.417 1944.93 751.774 1904.63 834.25 C 1900.6 840.589 1899.12 842.109 1893.53 847.17 L 1892.54 847.82 C 1885.11 852.626 1877.36 854.722 1868.55 852.802 C 1858.83 850.682 1852.3 844.389 1847.21 836.149 C 1832.06 811.635 1828.92 756.1 1797.67 747.633 C 1790.22 745.613 1782.67 746.86 1776.08 750.852 C 1744.08 770.249 1726.72 847.986 1718.99 883.392 C 1700.11 969.773 1682.6 1157.24 1731.39 1234.33 C 1739.11 1246.54 1749.67 1256.44 1764.26 1259.43 C 1774.5 1261.53 1784.91 1259.7 1793.52 1253.68 C 1822.01 1233.72 1830.43 1179.58 1835.26 1147.48 C 1839.32 1120.56 1844.18 1062.47 1868.1 1045.71 C 1873.89 1041.65 1880.65 1040.68 1887.48 1042.23 C 1897.43 1044.48 1904.73 1052.76 1909.78 1061.16 C 1939.8 1111.08 1923.61 1216.98 1909.31 1272.21 C 1894.05 1331.16 1863.7 1417.66 1809.28 1449.72 C 1790.31 1460.89 1769.1 1464.21 1747.75 1458.39 C 1729.63 1453.45 1715.17 1442.76 1701.03 1430.83 C 1713.55 1525.64 1732.16 1611.57 1746.51 1704.68 C 1762.8 1811.21 1773.68 1918.49 1779.1 2026.13 C 1783.62 2109.92 1785.79 2202.4 1779.38 2286 L 1652.49 2286 C 1720.84 2085.49 1724.24 1861.15 1687.4 1653.65 C 1671.54 1564.37 1645.53 1474.08 1630.89 1385.29 C 1629.45 1380.42 1627.67 1369.26 1626.65 1363.83 C 1622.71 1349.18 1617.19 1312.76 1614.42 1296.8 C 1605.36 1244.64 1598.08 1192.19 1592.6 1139.54 C 1590.58 1119.55 1587.61 1092.35 1587.34 1072.67 L 1587.16 1066.23 z"/>
<path transform="translate(0,0)" fill="rgb(46,125,50)" d="M 1893.53 847.17 C 1891.86 846.827 1891.58 846.514 1890.02 845.744 L 1889.53 843.47 C 1891.88 837.779 1894.94 828.617 1901.82 827.668 C 1904.63 830.009 1903.75 829.605 1904.63 834.25 C 1900.6 840.589 1899.12 842.109 1893.53 847.17 z"/>
<path transform="translate(0,0)" fill="rgb(46,125,50)" d="M 1626.65 1363.83 C 1629.66 1361.31 1628.5 1361.74 1631.97 1360.55 C 1638.78 1365.4 1635.6 1380.41 1630.89 1385.29 C 1629.45 1380.42 1627.67 1369.26 1626.65 1363.83 z"/>
<path transform="translate(0,0)" fill="rgb(46,125,50)" d="M 1587.16 1066.23 C 1587.53 1060.85 1587.04 1053.34 1589.14 1049.14 L 1591.12 1048.24 C 1594.81 1049.72 1595.56 1050.29 1594.85 1054.76 C 1592.96 1056.1 1592.08 1056.73 1590.07 1057.9 C 1589.82 1062.74 1590.25 1069.27 1587.34 1072.67 L 1587.16 1066.23 z"/>
<path transform="translate(0,0)" fill="rgb(46,125,50)" d="M 1911.77 2286 C 1887.86 2098.4 1896.07 1876.84 1952.61 1695.31 C 1973.18 1629.24 2017.07 1548.32 2080.91 1516.56 C 2111.36 1501.12 2146.78 1498.75 2179.01 1510.01 C 2240.48 1531.32 2260.35 1583.14 2286 1635.27 L 2286 2286 L 2193.82 2286 L 2009.03 2286 L 1911.77 2286 z"/>
<path transform="translate(0,0)" fill="rgb(10,12,11)" d="M 2009.03 2286 C 1995.75 2195.1 1990.76 2100.23 2022.44 2011.75 C 2034.35 1978.49 2072.91 1906.29 2120.19 1942.3 C 2147.64 1963.21 2155.75 2010.86 2158.27 2042.24 C 2161.93 2080.69 2152.59 2120.96 2156.62 2158.97 C 2161.1 2201.27 2181.2 2244.77 2193.82 2286 L 2009.03 2286 z"/>
<path transform="translate(0,0)" fill="rgb(46,125,50)" d="M 1265.61 2286 C 1395.63 2095.06 1435.29 1742.46 1421.71 1513.24 C 1415.13 1385.08 1393.53 1258.14 1357.37 1135.02 C 1304.35 949.38 1215.52 759.131 1207.86 565.362 C 1206.92 510.896 1208.6 443.684 1246.18 400.74 C 1265.24 378.955 1298.69 377.129 1317.24 398.911 C 1363.13 452.772 1357.61 562.859 1357.28 629.289 C 1357.64 640.001 1359.39 671.317 1358.55 680.545 C 1360.88 702.102 1361.52 727.636 1363.37 749.858 C 1367.14 796.235 1372.45 842.475 1379.28 888.502 C 1397.98 1016.48 1420.71 1146.07 1441.02 1274.02 C 1456.6 1372.23 1472.78 1460.02 1482.45 1559.76 C 1496.3 1699.4 1497.45 1840 1485.86 1979.83 C 1478.19 2075.15 1460.78 2193.39 1434.33 2286 L 1265.61 2286 z"/>
<path transform="translate(0,0)" fill="rgb(46,125,50)" d="M 1358.55 680.545 C 1357.91 686.191 1357.82 687.812 1358.34 693.492 L 1358.48 694.829 C 1353.57 695.168 1351.75 686.694 1351.42 682.757 C 1353.58 678.042 1354.17 677.713 1352.83 673.587 L 1351.84 673.833 C 1351.54 674.821 1351.24 675.81 1350.95 676.799 L 1350.41 678.729 C 1346.72 670.528 1347.87 650.707 1351.58 642.583 C 1354.08 637.099 1352.25 631.769 1357.28 629.289 C 1357.64 640.001 1359.39 671.317 1358.55 680.545 z"/>
<path transform="translate(0,0)" fill="rgb(46,125,50)" d="M 867.707 2286 C 851.423 2209.92 842.654 2114.21 837.852 2036.33 C 834.857 1987.47 832.756 1938.56 831.553 1889.63 C 829.807 1803.51 831.556 1717.37 836.796 1631.39 C 840.942 1563.93 846.525 1497.66 864.635 1432.22 C 879.069 1380.07 924.705 1294.52 985.806 1355.42 C 988.6 1359.02 991.007 1361.88 993.202 1365.94 C 1001.27 1377.02 1010.24 1400.65 1014.01 1413.92 C 1044.01 1519.51 1030.81 1628.09 1014.08 1734.22 C 990.879 1881.45 964.38 2038.11 1000.9 2184.89 C 1009.96 2221.3 1023.11 2252.1 1038.35 2286 L 867.707 2286 z"/>
<path transform="translate(0,0)" fill="rgb(46,125,50)" d="M 985.806 1355.42 C 988.6 1359.02 991.007 1361.88 993.202 1365.94 C 987.795 1372.72 978.521 1368.4 979.956 1358.46 C 982.573 1355.2 980.888 1356.48 985.806 1355.42 z"/>
<path transform="translate(0,0)" fill="rgb(46,125,50)" d="M 1498.91 2286 C 1498.08 2205.7 1528.22 2153.66 1550.04 2078.99 C 1561.31 2040.39 1568.16 1997.3 1571.74 1957.3 C 1592.74 1722.82 1547.56 1491.4 1496.69 1264.22 C 1480.82 1190.98 1464.3 1117.89 1447.14 1044.94 C 1429.98 970.601 1407.7 888.778 1428.87 813.275 C 1436.31 786.761 1453.63 749.986 1485.72 750.591 C 1497.68 750.816 1509.1 756.242 1517.13 765.288 C 1547.34 801.083 1539.64 888.709 1537.48 933.66 C 1536.04 960.02 1534.87 986.393 1533.97 1012.78 C 1532.4 1055.27 1532.76 1097.82 1535.06 1140.29 C 1550.8 1452.18 1678.3 1748.2 1654.83 2063.2 C 1649.48 2134.92 1638.34 2217.76 1615.51 2286 L 1498.91 2286 z"/>
<path transform="translate(0,0)" fill="rgb(46,125,50)" d="M 1251.93 1484.94 C 1253.51 1484.89 1255.09 1484.97 1256.66 1485.18 C 1332.08 1495.2 1338.24 1766.65 1336.34 1824.92 C 1334.6 1870.35 1330.23 1915.65 1323.26 1960.57 C 1311.29 2036.27 1280.44 2167.93 1215.3 2216.34 C 1195.13 2231.33 1175.63 2233.11 1151.56 2229.21 C 1142.87 2227.26 1134.63 2223.66 1127.29 2218.62 C 1094.01 2196.09 1072.57 2144.49 1065.94 2106.02 C 1054.11 2037.34 1064.32 1959.75 1090.4 1895.34 C 1103.56 1862.84 1129.2 1832.6 1147.33 1802.7 C 1161.42 1779.58 1172.91 1754.97 1181.6 1729.33 C 1190.5 1702.54 1196.77 1674.95 1200.33 1646.95 C 1205.63 1607 1202.14 1492.38 1251.93 1484.94 z"/>
<path transform="translate(0,0)" fill="rgb(46,125,50)" d="M 1214.05 1096.39 C 1216.66 1111.49 1219.82 1149.62 1231.57 1158.07 C 1236.04 1158.88 1234.03 1159.21 1237.87 1157.49 C 1257.76 1130.38 1213.96 1033.49 1256.84 1018.35 C 1260.04 1017.22 1266.62 1019.75 1269.25 1022.28 C 1303.08 1062.65 1307.05 1140.4 1312.57 1191.6 C 1316.5 1228.08 1317.29 1294.32 1297.52 1324.5 C 1287.93 1339.15 1266.93 1331.74 1258.6 1320.19 C 1253 1312.43 1244.28 1303.42 1240.41 1293.8 C 1233.06 1281.85 1222.03 1238.84 1208.06 1237.46 C 1196.59 1242.16 1195.36 1280.39 1194.67 1291.23 C 1191.65 1338.32 1195.92 1392.26 1170.76 1434.16 C 1162.17 1448.46 1145.98 1461.68 1128.5 1454.2 C 1111.52 1446.93 1101.66 1428.07 1095.12 1411.73 C 1075.47 1360.56 1068.52 1304.46 1038.96 1257.26 C 1031.27 1244.94 1021.31 1233.02 1014.57 1220.2 C 988.912 1171.34 985.972 1105.08 1007.08 1054.59 C 1038.13 980.286 1092.05 999.158 1111.15 1066.22 C 1116.09 1083.53 1120.08 1100.96 1122.43 1118.96 C 1127.66 1157.6 1128.77 1197.14 1136.9 1235.34 C 1138.27 1241.83 1140.59 1249.17 1145.99 1253.36 C 1165.25 1255.25 1164.73 1195.89 1163.89 1184.33 C 1163.35 1177.05 1162.13 1167.88 1162.02 1160.9 C 1159.97 1152.68 1157.76 1134.43 1157 1126.05 C 1153.17 1113.76 1154.96 1080.2 1159.43 1067.67 C 1171.64 1033.48 1194 1033.44 1207.35 1068.24 C 1210.21 1077.87 1212.42 1086.43 1214.05 1096.39 z"/>
<path transform="translate(0,0)" fill="rgb(46,125,50)" d="M 1207.35 1068.24 C 1210.21 1077.87 1212.42 1086.43 1214.05 1096.39 C 1212.14 1097.36 1214.61 1096.5 1211.27 1097.28 C 1205.08 1098.72 1205.38 1105.96 1197.49 1103.98 C 1196.86 1101.97 1196.68 1100.9 1198.12 1098.99 C 1206.58 1087.83 1195.65 1075.28 1207.35 1068.24 z"/>
<path transform="translate(0,0)" fill="rgb(46,125,50)" d="M 1157 1126.05 L 1158.1 1124.57 C 1163.75 1130.32 1159.68 1136.83 1167.72 1143.05 C 1167.83 1150.56 1163.86 1153.15 1164.82 1159.36 C 1162.77 1160.87 1163.77 1160.5 1162.02 1160.9 C 1159.97 1152.68 1157.76 1134.43 1157 1126.05 z"/>
<path transform="translate(0,0)" fill="rgb(46,125,50)" d="M 1471.97 400.871 C 1481.56 394.085 1496.4 393.934 1502.62 405.045 C 1506.56 412.076 1507.95 420.194 1512.03 426.646 C 1520.97 434.997 1524.01 432.984 1533.97 436.59 C 1537.02 438.225 1540.45 439.827 1543.04 442.041 C 1550.14 448.291 1552.94 454.335 1557.06 462.604 C 1573.8 509.753 1571.63 561.553 1551.01 607.14 C 1523.48 666.811 1449.69 732.844 1413.82 633.651 C 1402.32 601.856 1409.96 545.606 1418.92 512.471 C 1422.93 494.875 1427.72 477.467 1433.28 460.297 C 1436.9 448.813 1445.23 430.101 1452.5 420.677 C 1457.03 412.512 1464.16 405.846 1471.97 400.871 z"/>
<path transform="translate(0,0)" fill="rgb(46,125,50)" d="M 1418.92 512.471 C 1422.93 494.875 1427.72 477.467 1433.28 460.297 C 1435.48 463.273 1435.92 463.355 1436.27 467.093 C 1433.78 472.024 1427.78 489.639 1429.33 494.642 L 1430.88 495.385 C 1431.53 492.644 1431.78 491.031 1432.87 488.413 C 1432.5 493.529 1431.98 508.485 1429.92 512.083 C 1426.79 513.387 1426.67 513.164 1423.2 513.242 L 1420.65 515.359 L 1418.92 512.471 z"/>
<path transform="translate(0,0)" fill="rgb(46,125,50)" d="M 1471.97 400.871 L 1474.7 402.487 C 1472.72 412.51 1468.86 416.392 1460.51 422.214 C 1457.49 424.315 1454.15 424.326 1452.5 420.677 C 1457.03 412.512 1464.16 405.846 1471.97 400.871 z"/>
<path transform="translate(0,0)" fill="rgb(46,125,50)" d="M 1557.06 462.604 C 1555.19 464.886 1553.17 466.647 1551.04 468.684 C 1545.79 463.289 1544.12 452.251 1538.2 444.766 C 1540.07 442.07 1538.94 443.278 1543.04 442.041 C 1550.14 448.291 1552.94 454.335 1557.06 462.604 z"/>
</svg>